<?xml version="1.0" encoding="UTF-8"?>
<svg width="97px" height="97px" viewBox="0 0 97 97" version="1.1" xmlns="http://www.w3.org/2000/svg" xmlns:xlink="http://www.w3.org/1999/xlink">
    <!-- Generator: Sketch 63.1 (92452) - https://sketch.com -->
    <title>Group 5</title>
    <desc>Created with Sketch.</desc>
    <g id="Page-1" stroke="none" stroke-width="1" fill="none" fill-rule="evenodd">
        <g id="Group-5" stroke="#3B5F21">
            <rect id="Rectangle" fill="#FFFFFF" x="0.5" y="0.5" width="96" height="96" rx="8"></rect>
            <g id="Group-4" transform="translate(5.000000, 28.000000)" fill="#ADBAA2" fill-rule="nonzero">
                <g id="Group-3">
                    <path d="M71.76,41 C75,41 77.76,40.4119683 80.04,39.235905 C82.32,38.0598417 84.05,36.5086548 85.23,34.5823442 C86.41,32.6560336 87,30.5776459 87,28.347181 C87,25.5895153 86.34,23.3387735 85.02,21.5949555 C83.7,19.8511375 81.82,18.4925816 79.38,17.5192878 L74.64,15.6335312 C72.88,14.9441147 71.48,14.3459446 70.44,13.8390208 C69.4,13.3320969 68.88,12.6122651 68.88,11.6795252 C68.88,10.7873393 69.25,10.1181998 69.99,9.67210682 C70.73,9.22601385 71.72,9.00296736 72.96,9.00296736 C74.4,9.00296736 75.73,9.2462908 76.95,9.73293769 C78.17,10.2195846 79.44,10.9292779 80.76,11.8620178 L85.92,5.29228487 C84.12,3.50791296 82.07,2.1797725 79.77,1.3078635 C77.47,0.4359545 75.2,0 72.96,0 C70.12,0 67.61,0.557616222 65.43,1.67284866 C63.25,2.78808111 61.54,4.26829871 60.3,6.11350148 C59.06,7.95870425 58.44,10.016815 58.44,12.2878338 C58.44,15.1266073 59.23,17.458457 60.81,19.2833828 C62.39,21.1083086 64.22,22.4465875 66.3,23.2982196 L71.16,25.3664688 C72.8,26.0153314 74.09,26.5830861 75.03,27.0697329 C75.97,27.5563798 76.44,28.2660732 76.44,29.1988131 C76.44,30.090999 76.09,30.7804154 75.39,31.2670623 C74.69,31.7537092 73.56,31.9970326 72,31.9970326 C70.56,31.9970326 69.03,31.642186 67.41,30.9324926 C65.79,30.2227992 64.28,29.3001978 62.88,28.1646884 L57,35.34273 C59.12,37.2487636 61.5,38.6681503 64.14,39.6008902 C66.78,40.5336301 69.32,41 71.76,41 Z" id="Path"></path>
                    <g id="Group" transform="translate(31.000000, 1.000000)">
                        <path d="M14.6972112,-0.528 L15.3200972,-0.521720565 C18.0042517,-0.467298796 20.4931702,-0.0591355311 22.7868526,0.702769231 C25.2569721,1.52328205 27.2433599,2.89764103 28.7460159,4.82584615 C30.248672,6.75405128 31,9.40020513 31,12.7643077 C31,16.0053333 30.248672,18.6617436 28.7460159,20.7335385 C27.2433599,22.8053333 25.2672643,24.3335385 22.8177291,25.3181538 C20.3681939,26.3027692 17.7436919,26.7950769 14.9442231,26.7950769 L14.9442231,26.7950769 L10.6215139,26.7950769 L10.6215139,39.472 L0,39.472 L0,-0.528 L14.6972112,-0.528 Z M14.2031873,7.84123077 L10.6215139,7.84123077 L10.6215139,18.4258462 L14.4501992,18.4258462 C16.5498008,18.4258462 18.1039177,17.9232821 19.1125498,16.9181538 C20.1211819,15.9130256 20.625498,14.5284103 20.625498,12.7643077 C20.625498,10.9591795 20.0697211,9.68738462 18.9581673,8.94892308 C17.8466135,8.21046154 16.2616202,7.84123077 14.2031873,7.84123077 L14.2031873,7.84123077 Z" id="Combined-Shape"></path>
                    </g>
                    <g id="Group-2" transform="translate(0.000000, 1.000000)">
                        <path d="M14.2235294,-0.528 L14.8551108,-0.522902139 C17.3641722,-0.482119254 19.6660633,-0.196639053 21.7607843,0.333538462 C24.0300654,0.907897436 25.8333333,1.91302564 27.1705882,3.34892308 C28.5078431,4.78482051 29.1764706,6.81558974 29.1764706,9.44123077 C29.1764706,11.1643077 28.730719,12.8771282 27.8392157,14.5796923 C26.9477124,16.2822564 25.7320261,17.4412308 24.1921569,18.0566154 L24.1921569,18.0566154 L24.1921569,18.3027692 L24.5458218,18.4085385 C26.2969324,18.9662308 27.7898284,19.9566154 29.0245098,21.3796923 C30.3415033,22.897641 31,24.9899487 31,27.6566154 C31,30.4053333 30.2908497,32.6514872 28.872549,34.3950769 C27.4542484,36.1386667 25.5699346,37.4207179 23.2196078,38.2412308 C20.869281,39.0617436 18.275817,39.472 15.4392157,39.472 L15.4392157,39.472 L0,39.472 L0,-0.528 L14.2235294,-0.528 Z M14.7098039,22.8566154 L10.454902,22.8566154 L10.454902,31.3489231 L14.7098039,31.3489231 C18.7620915,31.3489231 20.7882353,29.872 20.7882353,26.9181538 C20.7882353,25.4412308 20.2918301,24.3950769 19.2990196,23.7796923 C18.3062092,23.1643077 16.7764706,22.8566154 14.7098039,22.8566154 L14.7098039,22.8566154 Z M13.9803922,7.59507692 L10.454902,7.59507692 L10.454902,15.1027692 L13.9803922,15.1027692 C15.6823529,15.1027692 16.9385621,14.7335385 17.7490196,13.9950769 C18.5594771,13.2566154 18.9647059,12.272 18.9647059,11.0412308 C18.9647059,9.81046154 18.5594771,8.92841026 17.7490196,8.39507692 C16.9385621,7.86174359 15.6823529,7.59507692 13.9803922,7.59507692 L13.9803922,7.59507692 Z" id="Combined-Shape"></path>
                    </g>
                </g>
            </g>
        </g>
    </g>
</svg>