<?xml version="1.0" encoding="UTF-8"?>
<svg width="193px" height="193px" viewBox="0 0 193 193" version="1.1" xmlns="http://www.w3.org/2000/svg" xmlns:xlink="http://www.w3.org/1999/xlink">
    <!-- Generator: Sketch 63.1 (92452) - https://sketch.com -->
    <title>Group 8</title>
    <desc>Created with Sketch.</desc>
    <defs>
        <rect id="path-1" x="0" y="0" width="193" height="193"></rect>
    </defs>
    <g id="Page-1" stroke="none" stroke-width="1" fill="none" fill-rule="evenodd">
        <g id="Group-8">
            <g id="Group-5">
                <mask id="mask-2" fill="white">
                    <use xlink:href="#path-1"></use>
                </mask>
                <rect stroke="#979797" x="0.5" y="0.5" width="192" height="192"></rect>
                <polyline id="Path-2" fill="#FECF0E" opacity="0.452892485" mask="url(#mask-2)" points="-9 5 176 189 76.0823694 189 73.8005608 5"></polyline>
                <path d="M185,2.5 L8,2.5 C6.48121694,2.5 5.10621694,3.11560847 4.1109127,4.1109127 C3.11560847,5.10621694 2.5,6.48121694 2.5,8 L2.5,185 C2.5,186.518783 3.11560847,187.893783 4.1109127,188.889087 C5.10621694,189.884392 6.48121694,190.5 8,190.5 L185,190.5 C186.518783,190.5 187.893783,189.884392 188.889087,188.889087 C189.884392,187.893783 190.5,186.518783 190.5,185 L190.5,8 C190.5,6.48121694 189.884392,5.10621694 188.889087,4.1109127 C187.893783,3.11560847 186.518783,2.5 185,2.5 Z" id="Rectangle" stroke="#3B5F21" stroke-width="5" mask="url(#mask-2)"></path>
            </g>
            <g id="Group-4" transform="translate(18.000000, 60.000000)" fill="#3B5F21" fill-rule="nonzero" stroke="#3B5F21">
                <g id="Group-3">
                    <path d="M130.322759,74 C136.206897,74 141.21931,72.9386746 145.36,70.8160237 C149.50069,68.6933729 152.642529,65.8936696 154.785517,62.4169139 C156.928506,58.9401583 158,55.1889219 158,51.1632047 C158,46.1859545 156.801379,42.12364 154.404138,38.9762611 C152.006897,35.8288823 148.592644,33.3768546 144.161379,31.620178 L135.553103,28.2166172 C132.356782,26.9723046 129.814253,25.8926805 127.925517,24.9777448 C126.036782,24.0628091 125.092414,22.7636004 125.092414,21.0801187 C125.092414,19.4698318 125.764368,18.2621167 127.108276,17.4569733 C128.452184,16.6518299 130.250115,16.2492582 132.502069,16.2492582 C135.117241,16.2492582 137.532644,16.6884273 139.748276,17.5667656 C141.963908,18.4451039 144.270345,19.7260138 146.667586,21.4094955 L156.038621,9.55192878 C152.769655,6.33135509 149.046667,3.93422354 144.869655,2.36053412 C140.692644,0.786844708 136.570115,0 132.502069,0 C127.344368,0 122.785977,1.00642928 118.826897,3.01928783 C114.867816,5.03214639 111.762299,7.70375865 109.510345,11.0341246 C107.258391,14.3644906 106.132414,18.0791296 106.132414,22.1780415 C106.132414,27.3016815 107.567126,31.5103858 110.436552,34.8041543 C113.305977,38.0979228 116.629425,40.5133531 120.406897,42.0504451 L129.233103,45.7833828 C132.211494,46.9545005 134.554253,47.9792285 136.261379,48.8575668 C137.968506,49.735905 138.822069,51.016815 138.822069,52.7002967 C138.822069,54.3105836 138.186437,55.5548961 136.915172,56.4332344 C135.643908,57.3115727 133.591724,57.7507418 130.758621,57.7507418 C128.143448,57.7507418 125.364828,57.1102868 122.422759,55.8293769 C119.48069,54.5484669 116.738391,52.8832839 114.195862,50.8338279 L103.517241,63.7893175 C107.367356,67.2294758 111.689655,69.7912957 116.484138,71.4747774 C121.278621,73.1582591 125.891494,74 130.322759,74 Z" id="Path"></path>
                    <g id="Group" transform="translate(56.298851, 0.747735)">
                        <path d="M26.6914869,0.104167247 L27.4846615,0.109720718 C32.4885676,0.180064683 37.1213537,0.918676316 41.3830196,2.32555562 C45.8689838,3.80648119 49.4764467,6.28703154 52.2054083,9.76720665 C54.9343698,13.2473818 56.2988506,18.0233667 56.2988506,24.0951616 C56.2988506,29.9448177 54.9343698,34.7393142 52.2054083,38.4786513 C49.4764467,42.2179884 45.8876754,44.9762123 41.4390942,46.753323 C36.990513,48.5304337 32.2241761,49.418989 27.1400833,49.418989 L27.1400833,49.418989 L19.289646,49.418989 L19.289646,72.2992892 L0,72.2992892 L0,0.104167247 L26.6914869,0.104167247 Z M25.7942941,15.2096081 L19.289646,15.2096081 L19.289646,34.3135481 L26.2428905,34.3135481 C30.0559601,34.3135481 32.8783792,33.4064812 34.7101479,31.5923474 C36.5419166,29.7782135 37.457801,27.2791516 37.457801,24.0951616 C37.457801,20.8371253 36.448459,18.5416907 34.4297752,17.2088577 C32.4110913,15.8760247 29.5325976,15.2096081 25.7942941,15.2096081 L25.7942941,15.2096081 Z" id="Combined-Shape"></path>
                    </g>
                    <g id="Group-2" transform="translate(0.000000, 0.747735)">
                        <path d="M25.8312373,0.104167247 L26.7097729,0.109547773 C31.3708497,0.166940044 35.6407871,0.683470488 39.5195853,1.6591391 C43.6408084,2.69578701 46.9157088,4.50992084 49.3442867,7.10154061 C51.7728645,9.69316037 52.9871535,13.3584512 52.9871535,18.097413 C52.9871535,21.2073567 52.1776275,24.2987889 50.5585756,27.3717095 C48.9395237,30.44463 46.7317256,32.5364374 43.9351814,33.6471316 L43.9351814,33.6471316 L43.9351814,34.0914093 L44.3833144,34.2220051 C47.6474332,35.2166608 50.423388,37.0242858 52.7111787,39.6448802 C55.10296,42.3845925 56.2988506,46.1609527 56.2988506,50.9739609 C56.2988506,55.9350616 55.0109684,59.9890953 52.435204,63.1360622 C49.8594396,66.283029 46.4373526,68.5969753 42.168943,70.0779008 C37.9005334,71.5588264 33.1905642,72.2992892 28.0390354,72.2992892 L28.0390354,72.2992892 L0,72.2992892 L0,0.104167247 L25.8312373,0.104167247 Z M26.7143565,42.3105462 L18.9870633,42.3105462 L18.9870633,57.638126 L26.7143565,57.638126 C34.0736834,57.638126 37.7533469,54.9724599 37.7533469,49.6411278 C37.7533469,46.9754618 36.8518293,45.0872817 35.0487942,43.9765875 C33.2457591,42.8658933 30.4676133,42.3105462 26.7143565,42.3105462 L26.7143565,42.3105462 Z M25.3896777,14.7653305 L18.9870633,14.7653305 L18.9870633,28.3157995 L25.3896777,28.3157995 C28.480595,28.3157995 30.7619863,27.649383 32.2338517,26.31655 C33.7057171,24.983717 34.4416498,23.2066063 34.4416498,20.9852179 C34.4416498,18.7638295 33.7057171,17.1718345 32.2338517,16.2092329 C30.7619863,15.2466313 28.480595,14.7653305 25.3896777,14.7653305 L25.3896777,14.7653305 Z" id="Combined-Shape"></path>
                    </g>
                </g>
            </g>
        </g>
    </g>
</svg>