<?xml version="1.0" encoding="UTF-8"?>
<svg width="193px" height="193px" viewBox="0 0 193 193" version="1.1" xmlns="http://www.w3.org/2000/svg" xmlns:xlink="http://www.w3.org/1999/xlink">
    <!-- Generator: Sketch 63.1 (92452) - https://sketch.com -->
    <title>Group 5</title>
    <desc>Created with Sketch.</desc>
    <defs>
        <rect id="path-1" x="0" y="0" width="193" height="193"></rect>
    </defs>
    <g id="Page-1" stroke="none" stroke-width="1" fill="none" fill-rule="evenodd">
        <g id="Group-5">
            <mask id="mask-2" fill="white">
                <use xlink:href="#path-1"></use>
            </mask>
            <rect stroke="#979797" x="0.5" y="0.5" width="192" height="192"></rect>
            <polyline id="Path-2" stroke="#979797" fill="#FECF0E" opacity="0.452892485" mask="url(#mask-2)" points="-9 5 176 189 76.0823694 189 73.8005608 5"></polyline>
            <path d="M185,2.5 L8,2.5 C6.48121694,2.5 5.10621694,3.11560847 4.1109127,4.1109127 C3.11560847,5.10621694 2.5,6.48121694 2.5,8 L2.5,185 C2.5,186.518783 3.11560847,187.893783 4.1109127,188.889087 C5.10621694,189.884392 6.48121694,190.5 8,190.5 L185,190.5 C186.518783,190.5 187.893783,189.884392 188.889087,188.889087 C189.884392,187.893783 190.5,186.518783 190.5,185 L190.5,8 C190.5,6.48121694 189.884392,5.10621694 188.889087,4.1109127 C187.893783,3.11560847 186.518783,2.5 185,2.5 Z" id="Rectangle" stroke="#3B5F21" stroke-width="5" mask="url(#mask-2)"></path>
            <g id="Group-6" mask="url(#mask-2)">
                <g transform="translate(18.000000, 61.000000)">
                    <g id="Group-7" stroke="none" fill="none">
                        <path d="M31.8697893,0.499938513 L0.5,0.5 L0.5,70.5999556 L32.229835,70.5971377 C37.8328784,70.5059532 42.8982666,68.186036 46.5588591,64.4898688 C50.2119753,60.8012505 52.4659091,55.7418361 52.4659091,50.159589 C52.4659091,45.3892659 50.8200298,41.0006686 48.0614438,37.5232798 C45.2441436,33.9718775 41.2666474,31.3704944 36.6963746,30.2830314 C35.9903589,30.1150401 35.2807017,29.9856766 34.5702068,29.8940268 C35.2695841,29.7554926 35.9636964,29.5660766 36.64555,29.325171 C39.5807807,28.2881245 42.0933531,26.3659824 43.8576182,23.8822025 C45.5732052,21.466953 46.5808081,18.5203487 46.5808081,15.3400685 C46.5808081,11.285255 44.9426742,7.6104569 42.2880769,4.93195729 C39.6277873,2.24771416 35.9467905,0.563882923 31.8697893,0.499938513 Z" id="Combined-Shape" stroke="#3B5F21" fill="#3B5F21"></path>
                    </g>
                    <path d="M78.860935,0.5 L53.4659091,0.5 L53.4659091,70.6 L78.3755646,70.6 L78.3756858,41.1720863 C79.3371703,41.3096536 80.3201755,41.3808219 81.3198695,41.3808219 C86.9868186,41.3808219 92.117364,39.0927927 95.8311157,35.3932855 C99.5441707,31.6944723 101.840909,26.5846555 101.840909,20.940411 C101.840909,15.2961664 99.5441707,10.1863496 95.8311157,6.48753646 C92.117364,2.78802921 86.9868186,0.5 81.3198695,0.5 C81.0461837,0.5 80.7737343,0.505302809 80.5026131,0.510549001 C79.9498058,0.521245813 79.402344,0.531324055 78.860935,0.5 Z" id="Combined-Shape" stroke="#3B5F21" fill="#3B5F21"></path>
                    <path d="M151.692095,0.500636205 L117.847063,0.543673589 C113.640789,0.853157516 109.880611,2.78901376 107.176499,5.73174225 C104.486003,8.65965256 102.840909,12.5844523 102.840909,16.8979592 C102.840909,23.5472834 106.750322,29.2732744 112.371744,31.8471176 L102.840909,31.8469477 L102.840909,71.4993284 L136.687823,71.4538944 C142.512182,71.0785705 147.72687,68.4343256 151.479453,64.385981 C155.213566,60.357561 157.5,54.9387233 157.5,48.9795918 C157.5,44.2248137 156.044466,39.8140039 153.559191,36.1790253 C150.366648,31.5095921 145.475337,28.1200065 139.78868,26.9275601 L151.692095,26.9285307 L151.692095,0.500636205 Z" id="Combined-Shape" stroke="#3B5F21" fill="#3B5F21"></path>
                </g>
            </g>
        </g>
    </g>
</svg>